Coordinates
version=1
nRows=8
nColumns=40
inDegrees=yes

Units are S.I. units (second, meters, Newtons, ...)
If the header above contains a line with 'inDegrees', this indicates whether rotational values are in degrees (yes) or radians (no).

endheader
time	pelvis_tilt	pelvis_list	pelvis_rotation	pelvis_tx	pelvis_ty	pelvis_tz	hip_flexion_r	hip_adduction_r	hip_rotation_r	knee_angle_r	knee_angle_r_beta	ankle_angle_r	subtalar_angle_r	mtp_angle_r	hip_flexion_l	hip_adduction_l	hip_rotation_l	knee_angle_l	knee_angle_l_beta	ankle_angle_l	subtalar_angle_l	mtp_angle_l	lumbar_extension	lumbar_bending	lumbar_rotation	arm_flex_r	arm_add_r	arm_rot_r	elbow_flex_r	pro_sup_r	wrist_flex_r	wrist_dev_r	arm_flex_l	arm_add_l	arm_rot_l	elbow_flex_l	pro_sup_l	wrist_flex_l	wrist_dev_l
      1.95500000	    -18.50989776	     -0.80183626	     -2.61124721	      0.17452798	      0.73595888	     -1.19917524	     61.15519369	    -32.96411213	    -15.67321012	     70.49684164	      1.23040200	     15.74802672	     -5.04192489	      0.00000000	     62.02736282	    -39.28144401	    -16.21022628	     70.66089931	      1.23326535	     17.30536423	      4.08398573	      0.00000000	    -10.75796539	      0.76773548	     -2.21362080	     44.99992390	    -14.99999999	     44.99992390	     75.00017585	     45.00000026	      0.00000000	      0.00000000	     44.99992390	    -14.99999999	     44.99992390	     75.00017585	     45.00000026	      0.00000000	      0.00000000
      1.96000000	    -18.08548753	     -0.69754828	     -2.73944194	      0.17606634	      0.74249697	     -1.19867678	     59.78816382	    -32.61226208	    -16.07879431	     69.19872815	      1.20774564	     15.40755142	     -5.05167253	      0.00000000	     60.24246837	    -39.09564347	    -17.30210662	     69.30103344	      1.20953121	     16.94646954	      4.27677519	      0.00000000	    -11.09874883	      0.63681964	     -2.04713799	     44.99992390	    -14.99999999	     44.99992390	     75.00017585	     45.00000026	      0.00000000	      0.00000000	     44.99992390	    -14.99999999	     44.99992390	     75.00017585	     45.00000026	      0.00000000	      0.00000000
      1.96500000	    -18.17142947	     -0.63236751	     -2.83949918	      0.17686315	      0.74748917	     -1.19827832	     59.12633620	    -32.20897039	    -16.38004103	     68.03092109	      1.18736357	     14.92050263	     -5.36708140	      0.00000000	     59.34391795	    -38.79086704	    -17.93282054	     68.10929743	      1.18873149	     16.51179230	      3.89391052	      0.00000000	    -10.75474866	      0.56973017	     -1.97104050	     44.99992390	    -14.99999999	     44.99992390	     75.00017585	     45.00000026	      0.00000000	      0.00000000	     44.99992390	    -14.99999999	     44.99992390	     75.00017585	     45.00000026	      0.00000000	      0.00000000
      1.97000000	    -17.82402004	     -0.52091898	     -2.96309585	      0.17828189	      0.75365770	     -1.19782782	     57.89391244	    -31.86226055	    -16.73414474	     66.73966155	      1.16482684	     14.52483529	     -5.43604382	      0.00000000	     57.70521534	    -38.53870607	    -18.94557395	     66.75780730	      1.16514354	     16.11917388	      3.98941011	      0.00000000	    -10.95646045	      0.44073913	     -1.81676003	     44.99992391	    -14.99999999	     44.99992391	     75.00017585	     45.00000026	      0.00000000	      0.00000000	     44.99992391	    -14.99999999	     44.99992391	     75.00017585	     45.00000026	      0.00000000	      0.00000000
      1.97500000	    -18.08728790	     -0.46222595	     -3.06014700	      0.17891879	      0.75798310	     -1.19748967	     57.48189123	    -31.47601295	    -17.02782590	     65.61460631	      1.14519092	     14.04073489	     -5.68609286	      0.00000000	     57.12279134	    -38.19137312	    -19.39467636	     65.63641728	      1.14557159	     15.66628584	      3.63035239	      0.00000000	    -10.36726251	      0.40532315	     -1.78224326	     44.99992391	    -14.99999999	     44.99992391	     75.00017585	     45.00000026	      0.00000000	      0.00000000	     44.99992391	    -14.99999999	     44.99992391	     75.00017585	     45.00000026	      0.00000000	      0.00000000
      1.98000000	    -17.55978247	     -0.38264819	     -3.14056716	      0.18057802	      0.76457105	     -1.19717415	     55.96394554	    -31.12939022	    -17.40908532	     64.23119989	      1.12104592	     13.60101425	     -5.86695072	      0.00000000	     55.25945347	    -37.90432485	    -20.46207163	     64.19037001	      1.12033330	     15.25978498	      3.66590415	      0.00000000	    -10.81119493	      0.29148080	     -1.65413604	     44.99992391	    -14.99999999	     44.99992391	     75.00017585	     45.00000026	      0.00000000	      0.00000000	     44.99992391	    -14.99999999	     44.99992391	     75.00017585	     45.00000026	      0.00000000	      0.00000000
      1.98500000	    -17.96538639	     -0.34163385	     -3.17669412	      0.18132443	      0.76817253	     -1.19689352	     55.72750817	    -30.80055476	    -17.69259198	     63.23354292	      1.10363352	     13.38498364	     -5.93485337	      0.00000000	     54.94952168	    -37.56598196	    -20.81587026	     63.16319582	      1.10240573	     14.97629955	      3.54628223	      0.00000000	     -9.84272786	      0.26418048	     -1.63303674	     44.99992391	    -14.99999999	     44.99992391	     75.00017585	     45.00000026	      0.00000000	      0.00000000	     44.99992391	    -14.99999999	     44.99992391	     75.00017585	     45.00000026	      0.00000000	      0.00000000
      1.99000000	    -17.26698912	     -0.25728711	     -3.29879250	      0.18300324	      0.77523547	     -1.19663688	     53.99979458	    -30.41176224	    -18.06836517	     61.69168152	      1.07672296	     12.66267791	     -6.23911972	      0.00000000	     52.82929868	    -37.22047485	    -21.91872816	     61.59302063	      1.07500101	     14.38566394	      3.39424006	      0.00000000	    -10.69478693	      0.16599635	     -1.52770248	     44.99992391	    -14.99999999	     44.99992391	     75.00017585	     45.00000026	      0.00000000	      0.00000000	     44.99992391	    -14.99999999	     44.99992391	     75.00017585	     45.00000026	      0.00000000	      0.00000000
